<svg width="345" height="25" viewBox="0 0 345 25" fill="none" xmlns="http://www.w3.org/2000/svg">
<g clip-path="url(#clip0_6_144)">
<path d="M16.7618 20C17.3573 20 17.8816 19.8628 18.3342 19.5875C18.7784 19.3203 19.1623 18.9547 19.4597 18.5157V19.7443H21.7298V5H19.4597V11.1432C19.1651 10.7006 18.7806 10.3329 18.3342 10.067C17.8816 9.7955 17.3573 9.659 16.7618 9.659C16.0861 9.659 15.453 9.794 14.8647 10.0625C14.275 10.331 13.7556 10.703 13.3058 11.1778C12.8576 11.6507 12.4993 12.2097 12.25 12.8247C11.9936 13.4582 11.8637 14.1407 11.8684 14.8295C11.8684 15.5442 11.9956 16.2125 12.25 16.835C12.5044 17.4575 12.8561 18.0065 13.3058 18.4813C13.753 18.9547 14.282 19.3336 14.864 19.5972C15.4538 19.8657 16.0861 20 16.7618 20ZM16.7903 17.69C16.332 17.694 15.8819 17.5612 15.4921 17.3068C15.0913 17.0475 14.761 16.683 14.5335 16.2489C14.306 15.8147 14.189 15.3256 14.194 14.8295C14.194 14.2985 14.3119 13.817 14.5478 13.385C14.7745 12.9623 15.0973 12.6058 15.4872 12.3477C15.8772 12.089 16.3296 11.9541 16.7903 11.9593C17.2677 11.9593 17.694 12.0867 18.0692 12.3425C18.4444 12.5982 18.7371 12.944 18.9481 13.3798C19.1592 13.8155 19.2643 14.2985 19.2643 14.8295C19.2643 15.3545 19.1592 15.8345 18.9481 16.2695C18.7494 16.6911 18.4477 17.0492 18.0742 17.3068C17.7019 17.5618 17.2734 17.69 16.7903 17.69ZM28.4194 20C28.9836 20 29.4753 19.8642 29.8938 19.592C30.3076 19.3252 30.6565 18.96 30.9127 18.5255L31.005 19.7443H33.2851V9.91475H31.015L31.1173 11.1732C30.774 10.7256 30.3523 10.3519 29.8753 10.0723C29.3886 9.7835 28.8351 9.6395 28.2148 9.6395C27.5512 9.6395 26.9309 9.77075 26.3539 10.0325C25.784 10.2899 25.2661 10.6603 24.8284 11.1237C24.3879 11.5887 24.0469 12.1295 23.8053 12.746C23.5613 13.3726 23.4379 14.0441 23.4422 14.7215C23.4373 15.4131 23.563 16.0987 23.8122 16.7384C24.0613 17.378 24.4288 17.9588 24.8931 18.4468C25.3501 18.9301 25.8903 19.317 26.4847 19.5867C27.0858 19.8627 27.7309 20 28.4194 20ZM28.4841 17.69C28.0305 17.6915 27.5851 17.5623 27.1959 17.3165C26.7972 17.069 26.4579 16.7276 26.2047 16.319C25.9453 15.9055 25.7857 15.4311 25.74 14.9375C25.6967 14.387 25.7805 13.8875 25.9909 13.439C26.1926 13.0012 26.503 12.6292 26.889 12.3628C27.28 12.0928 27.7384 11.9523 28.2056 11.9593C28.6555 11.9529 29.0978 12.0825 29.4803 12.3328C29.8583 12.5818 30.168 12.9148 30.4103 13.3303C30.6519 13.7465 30.7947 14.21 30.8381 14.7215C30.8757 15.2652 30.7997 15.7617 30.6107 16.211C30.4334 16.6445 30.145 17.0173 29.778 17.2872C29.4113 17.5557 28.9808 17.69 28.4848 17.69H28.4841ZM38.7 19.745V12.3125H40.5048V9.91475H38.7V6.8285H36.4299V9.91475H35.0529V12.3133H36.4299V19.7443L38.7 19.745ZM46.7098 20C47.2747 20 47.7657 19.8642 48.1849 19.592C48.5984 19.3251 48.9471 18.9599 49.203 18.5255L49.2961 19.7443H51.5755V9.91475H49.3061L49.4091 11.1732C49.0656 10.7256 48.6437 10.3518 48.1664 10.0723C47.6797 9.7835 47.1262 9.6395 46.5059 9.6395C45.8423 9.6395 45.222 9.77075 44.645 10.0325C44.0751 10.2899 43.5572 10.6603 43.1195 11.1237C42.679 11.5887 42.3379 12.1295 42.0964 12.746C41.8527 13.3726 41.7295 14.0442 41.734 14.7215C41.7291 15.4131 41.8548 16.0987 42.104 16.7384C42.3531 17.378 42.7206 17.9588 43.1849 18.4468C43.6417 18.93 44.1816 19.3169 44.7758 19.5867C45.3776 19.8627 46.0213 20 46.7098 20ZM46.7752 17.69C46.3214 17.6916 45.8757 17.5625 45.4863 17.3165C45.0878 17.0689 44.7488 16.7275 44.4958 16.319C44.2361 15.9055 44.0763 15.4312 44.0304 14.9375C43.9878 14.387 44.0709 13.8875 44.2819 13.439C44.4835 13.0013 44.7936 12.6294 45.1793 12.3628C45.5703 12.0928 46.0288 11.9523 46.4959 11.9593C46.9459 11.9529 47.3882 12.0825 47.7706 12.3328C48.1486 12.5818 48.4591 12.9148 48.7014 13.3303C48.943 13.7465 49.0851 14.21 49.1292 14.7215C49.1661 15.2652 49.0901 15.7617 48.9011 16.211C48.7238 16.6445 48.4354 17.0173 48.0683 17.2872C47.7024 17.5557 47.2711 17.69 46.7752 17.69ZM58.7582 20C59.4403 20 60.0777 19.865 60.6695 19.5972C61.8501 19.0665 62.7893 18.0727 63.2892 16.8253C63.5449 16.1879 63.6745 15.5021 63.6701 14.81C63.6701 13.8597 63.4498 12.9927 63.0093 12.2097C62.5779 11.4363 61.9664 10.7919 61.233 10.3378C60.4883 9.87275 59.6634 9.64025 58.7582 9.64025C58.1756 9.64025 57.659 9.779 57.2093 10.0573C56.7642 10.3312 56.379 10.7013 56.0788 11.1432V5H53.8087V19.745H56.0788V18.4963C56.3788 18.9381 56.7638 19.3082 57.2085 19.5823C57.659 19.8605 58.1756 20 58.7582 20ZM58.7298 17.6802C58.2587 17.6802 57.8374 17.5527 57.465 17.297C57.0913 17.0396 56.7893 16.6815 56.5904 16.2597C56.3765 15.8102 56.2681 15.313 56.2742 14.81C56.2742 14.2925 56.3794 13.8155 56.5904 13.3798C56.7898 12.9572 57.0913 12.5976 57.4643 12.3372C57.8402 12.0773 58.2812 11.9423 58.7305 11.9495C59.208 11.9495 59.6449 12.077 60.0421 12.3328C60.4386 12.5885 60.7555 12.9342 60.9907 13.37C61.2266 13.805 61.3445 14.2857 61.3445 14.81C61.3445 15.341 61.2266 15.8225 60.9907 16.2552C60.763 16.6787 60.4383 17.0351 60.0464 17.2917C59.6518 17.5509 59.1945 17.6856 58.7298 17.6802ZM66.4894 8.45C66.8184 8.45 67.0962 8.33375 67.3229 8.10125C67.5488 7.86875 67.6625 7.5755 67.6625 7.2215C67.6625 6.87425 67.5488 6.5825 67.3229 6.347C67.214 6.23156 67.0841 6.14066 66.9409 6.07981C66.7978 6.01896 66.6444 5.98942 66.4902 5.993C66.1612 5.993 65.8819 6.11075 65.6524 6.347C65.5407 6.45951 65.4523 6.59539 65.3931 6.74597C65.3339 6.89655 65.3051 7.05851 65.3085 7.2215C65.3085 7.5755 65.4229 7.86875 65.6524 8.10125C65.8819 8.33375 66.1605 8.45 66.4894 8.45ZM79.9894 12.2C80.3184 12.2 80.5962 12.0838 80.8229 11.8513C81.0488 11.6188 81.1625 11.3255 81.1625 10.9715C81.1625 10.6242 81.0488 10.3325 80.8229 10.097C80.714 9.98156 80.5841 9.89066 80.4409 9.82981C80.2978 9.76896 80.1444 9.73942 79.9902 9.743C79.6612 9.743 79.3819 9.86075 79.1524 10.097C79.0407 10.2095 78.9523 10.3454 78.8931 10.496C78.8339 10.6465 78.8051 10.8085 78.8085 10.9715C78.8085 11.3255 78.9229 11.6188 79.1524 11.8513C79.3819 12.0838 79.6605 12.2 79.9894 12.2ZM5.45878 19.493C6.7626 19.493 7.86391 19.031 8.76273 18.1085C9.66084 17.186 10.1099 16.022 10.1099 14.618C10.1099 13.2395 9.66084 12.083 8.76202 11.147C7.86391 10.211 6.7626 9.743 5.45807 9.743C4.15426 9.743 3.04726 10.211 2.13636 11.147C1.22547 12.083 0.77002 13.2395 0.77002 14.618C0.77002 16.022 1.22476 17.1853 2.13565 18.1085C3.04655 19.031 4.15426 19.493 5.45878 19.493ZM67.6156 19.7443V9.91475H65.3455V19.745L67.6156 19.7443ZM77.8465 19.7443V17.3458H73.1762L77.8465 12.3133V9.91475H69.9007V12.3133H74.5802L69.9007 17.3458V19.7443H77.8465Z" fill="#ADADAD"/>
</g>
<g clip-path="url(#clip1_6_144)">
<path d="M115.113 12.3958C116.135 12.3958 117.047 12.0694 117.767 11.5021L118.026 12.1062H120.369V3.55972H118.111L117.801 4.22083C117.075 3.6375 116.149 3.30139 115.113 3.30139C112.423 3.30139 110.5 5.18542 110.5 7.83333C110.5 10.4896 112.423 12.3958 115.113 12.3958ZM115.518 9.78889C114.383 9.78889 113.549 8.95555 113.549 7.83958C113.549 6.72986 114.376 5.89722 115.518 5.89722C116.653 5.89722 117.487 6.73055 117.487 7.83958C117.487 8.95555 116.653 9.78889 115.518 9.78889ZM126.503 12.3958C129.102 12.3958 130.833 10.8382 130.833 8.44653V3.56806H127.802V8.31806C127.802 9.21111 127.313 9.75139 126.503 9.75139C125.694 9.75139 125.195 9.22014 125.195 8.31806V3.56806H122.164V8.44653C122.164 10.8382 123.905 12.3958 126.503 12.3958ZM136.733 12.4049C137.758 12.4049 138.67 12.066 139.386 11.4813L139.672 12.116H141.914V0.481944H138.919V3.88125C138.262 3.48783 137.504 3.28234 136.733 3.28819C134.033 3.28819 132.111 5.18542 132.111 7.84167C132.111 10.4986 134.033 12.4049 136.733 12.4049ZM137.139 9.79792C136.004 9.79792 135.169 8.95764 135.169 7.84236C135.169 6.72569 136.003 5.88611 137.138 5.88611C138.274 5.88611 139.108 6.72639 139.108 7.84236C139.108 8.95833 138.274 9.79792 137.139 9.79792ZM146.822 2.49861V0H143.837V2.49861H146.822ZM146.844 12.1153V3.56806H143.816V12.1153H146.846H146.844ZM153.17 12.3958C156.029 12.3958 158.103 10.4826 158.103 7.84167C158.103 5.19236 156.029 3.28819 153.171 3.28819C150.302 3.28819 148.238 5.19236 148.238 7.84167C148.238 10.4826 150.301 12.3958 153.17 12.3958ZM160.122 5.74792C160.452 5.74792 160.73 5.63958 160.957 5.42431C161.184 5.20903 161.298 4.93819 161.298 4.60972C161.298 4.28819 161.184 4.01806 160.957 3.8C160.848 3.6932 160.718 3.60908 160.574 3.55274C160.431 3.4964 160.278 3.469 160.123 3.47222C159.793 3.47222 159.513 3.58125 159.283 3.8C159.171 3.90417 159.083 4.02999 159.023 4.16942C158.964 4.30884 158.935 4.4588 158.938 4.60972C158.938 4.9375 159.053 5.20903 159.283 5.42431C159.513 5.63958 159.792 5.74792 160.122 5.74792ZM153.17 9.75139C152.066 9.75139 151.273 8.97222 151.273 7.84167C151.273 6.71181 152.066 5.93333 153.171 5.93333C154.275 5.93333 155.068 6.71875 155.068 7.84236C155.068 8.97222 154.275 9.75139 153.17 9.75139ZM124.908 24.9319V21.5667C125.556 21.9435 126.297 22.1397 127.052 22.134C129.742 22.134 131.665 20.2347 131.665 17.5715C131.665 14.9083 129.741 13.0174 127.052 13.0174C126.007 13.0174 125.076 13.3687 124.353 13.9764L123.973 13.2979H121.912V24.9319H124.908ZM126.647 19.5271C125.512 19.5271 124.677 18.6937 124.677 17.5715C124.677 16.4486 125.512 15.6153 126.647 15.6153C127.782 15.6153 128.616 16.4486 128.616 17.5715C128.616 18.6944 127.775 19.5271 126.647 19.5271ZM136.085 21.8451V17.2806C136.085 16.1833 136.657 15.5514 137.574 15.5514C138.365 15.5514 138.721 16.0542 138.721 17.0403V21.8451H141.751V16.6979C141.751 14.4826 140.453 13.0451 138.433 13.0451C137.578 13.0487 136.75 13.3363 136.085 13.8604V10.2111H133.055V21.8451H136.085ZM146.569 12.2278V9.72917H143.586V12.2278H146.569ZM146.593 21.8451V13.2972H143.563V21.8451H146.593ZM151.529 21.8451V10.2111H148.498V21.8451H151.53H151.529ZM157.7 22.1257C159.908 22.1257 161.687 20.9069 162.306 18.9562H159.291C159 19.4562 158.408 19.7576 157.7 19.7576C156.744 19.7576 156.103 19.2507 155.905 18.2701H162.437C162.476 18.0062 162.499 17.7479 162.499 17.491C162.499 14.9833 160.536 13.0174 157.7 13.0174C154.939 13.0174 152.922 14.9444 152.922 17.5646C152.922 20.1757 154.956 22.1257 157.7 22.1257ZM159.515 16.6396H155.958C156.203 15.791 156.817 15.3243 157.7 15.3243C158.615 15.3243 159.248 15.7854 159.515 16.6396Z" fill="#ADADAD"/>
</g>
<g clip-path="url(#clip2_6_144)">
<path fill-rule="evenodd" clip-rule="evenodd" d="M195.167 11.5C196.139 11.5 197.072 11.8951 197.759 12.5983C198.447 13.3016 198.833 14.2554 198.833 15.25C198.833 16.2446 198.447 17.1984 197.759 17.9017C197.072 18.6049 196.139 19 195.167 19C194.194 19 193.262 18.6049 192.574 17.9017C191.886 17.1984 191.5 16.2446 191.5 15.25C191.5 14.2554 191.886 13.3016 192.574 12.5983C193.262 11.8951 194.194 11.5 195.167 11.5ZM202.5 4C203.472 4 204.405 4.39509 205.093 5.09835C205.78 5.80161 206.167 6.75544 206.167 7.75C206.167 8.74456 205.78 9.69839 205.093 10.4017C204.405 11.1049 203.472 11.5 202.5 11.5C201.528 11.5 200.595 11.1049 199.907 10.4017C199.22 9.69839 198.833 8.74456 198.833 7.75C198.833 6.75544 199.22 5.80161 199.907 5.09835C200.595 4.39509 201.528 4 202.5 4ZM214.611 17.755V11.473C214.777 11.2532 214.978 11.0882 215.215 10.978C215.453 10.8685 215.721 10.813 216.018 10.813C216.449 10.813 216.794 10.9667 217.054 11.2735C217.313 11.5795 217.442 11.9822 217.442 12.4795V17.755H220.125V12.0977C220.125 11.9005 220.114 11.7035 220.092 11.5075C220.269 11.2878 220.478 11.1175 220.721 10.9952C220.964 10.8737 221.234 10.8138 221.533 10.8138C221.963 10.8138 222.308 10.9667 222.568 11.2735C222.827 11.5795 222.956 11.9822 222.956 12.4795V17.755H225.64V12.0977C225.64 11.0215 225.322 10.1365 224.687 9.44275C224.053 8.74825 223.238 8.401 222.245 8.401C221.671 8.401 221.141 8.51125 220.655 8.731C220.175 8.94712 219.745 9.26692 219.397 9.6685C219.099 9.27502 218.717 8.95704 218.279 8.73925C217.817 8.51057 217.31 8.39502 216.797 8.40175C216.389 8.40175 215.999 8.46475 215.63 8.59225C215.259 8.71975 214.92 8.91025 214.611 9.1645V8.575H211.928V17.755H214.611ZM231.601 17.9282C232.329 17.9282 232.983 17.8188 233.563 17.5983C234.142 17.3793 234.708 17.026 235.26 16.5408L233.488 14.8915C233.279 15.1113 233.025 15.2815 232.727 15.4037C232.41 15.5288 232.072 15.5906 231.733 15.586C231.225 15.586 230.784 15.4495 230.408 15.178C230.04 14.9156 229.753 14.5514 229.58 14.128H235.823V13.4335C235.829 12.7508 235.717 12.0724 235.492 11.4295C235.271 10.8108 234.965 10.2813 234.573 9.84175C234.18 9.40128 233.704 9.04688 233.174 8.8C232.618 8.54212 232.013 8.41183 231.402 8.41825C230.762 8.41825 230.163 8.53975 229.605 8.78275C229.062 9.01611 228.569 9.35832 228.156 9.78925C227.741 10.2275 227.413 10.743 227.188 11.308C226.949 11.8993 226.828 12.5335 226.831 13.1732C226.831 13.8332 226.956 14.455 227.204 15.0392C227.442 15.6072 227.785 16.1227 228.214 16.5573C228.649 16.9922 229.164 17.3346 229.729 17.5645C230.324 17.8091 230.96 17.9327 231.601 17.9282ZM233.19 12.1667H229.531C229.663 11.704 229.89 11.3455 230.21 11.0912C230.529 10.8362 230.911 10.7087 231.352 10.7087C231.783 10.7087 232.161 10.8422 232.487 11.1085C232.812 11.3747 233.047 11.7272 233.191 12.1667H233.19ZM241.453 17.9282C242.182 17.9282 242.836 17.8188 243.416 17.5983C243.995 17.3793 244.561 17.026 245.113 16.5408L243.341 14.8915C243.131 15.1113 242.877 15.2815 242.579 15.4037C242.262 15.5287 241.925 15.5905 241.586 15.586C241.078 15.586 240.636 15.4495 240.261 15.178C239.893 14.9155 239.606 14.5513 239.433 14.128H245.676V13.4335C245.681 12.7508 245.569 12.0724 245.344 11.4295C245.124 10.8108 244.818 10.2813 244.425 9.84175C244.033 9.40128 243.557 9.04688 243.026 8.8C242.47 8.54212 241.865 8.41183 241.254 8.41825C240.614 8.41825 240.015 8.53975 239.458 8.78275C238.914 9.01611 238.421 9.35832 238.009 9.78925C237.594 10.2275 237.265 10.7431 237.041 11.308C236.802 11.8993 236.681 12.5335 236.684 13.1732C236.684 13.8332 236.809 14.455 237.057 15.0392C237.294 15.6072 237.637 16.1227 238.067 16.5573C238.502 16.9922 239.017 17.3346 239.582 17.5645C240.176 17.8091 240.812 17.9327 241.453 17.9282ZM243.043 12.1667H239.384C239.516 11.704 239.742 11.3455 240.062 11.0912C240.383 10.8362 240.763 10.7087 241.205 10.7087C241.635 10.7087 242.013 10.8422 242.339 11.1085C242.665 11.3747 242.899 11.7272 243.043 12.1667ZM251.355 17.8765C251.609 17.8765 251.924 17.8503 252.299 17.7985C252.614 17.7599 252.924 17.6932 253.227 17.599V15.325C253.006 15.394 252.802 15.4435 252.614 15.472C252.416 15.5017 252.217 15.5162 252.018 15.5155C251.587 15.5155 251.286 15.4315 251.116 15.2643C250.944 15.0963 250.859 14.8098 250.859 14.4048V10.9172H253.31V8.575H250.859V5.60725L248.176 6.21475V8.575H246.405V10.9172H248.176V14.9612C248.176 15.9212 248.444 16.6472 248.979 17.1392C249.515 17.6305 250.307 17.8765 251.355 17.8765ZM255.786 7.95775C256.125 7.95775 256.412 7.84075 256.646 7.60825C256.879 7.37575 256.996 7.08325 256.996 6.7285C256.996 6.38125 256.879 6.0895 256.646 5.854C256.533 5.73856 256.399 5.64766 256.251 5.58681C256.104 5.52596 255.945 5.49642 255.786 5.5C255.447 5.5 255.158 5.61775 254.922 5.854C254.806 5.96651 254.715 6.10239 254.654 6.25297C254.593 6.40355 254.563 6.56551 254.567 6.7285C254.567 7.0825 254.685 7.37575 254.922 7.60825C255.158 7.84075 255.447 7.95775 255.786 7.95775Z" fill="#ADADAD"/>
</g>
<g clip-path="url(#clip3_6_144)">
<path d="M309.426 16.143V12.33C309.426 11.9687 309.529 11.6748 309.737 11.4474C309.945 11.22 310.219 11.106 310.563 11.106C310.921 11.106 311.202 11.2222 311.406 11.4531C311.61 11.684 311.711 12.0077 311.711 12.4235V16.1422H313.356V12.33C313.356 12.0892 313.404 11.8767 313.499 11.6925C313.594 11.5076 313.725 11.3638 313.895 11.2604C314.064 11.1577 314.264 11.106 314.493 11.106C314.853 11.106 315.133 11.2222 315.337 11.4531C315.54 11.684 315.643 12.0077 315.643 12.4235V16.1422H317.287V12.0042C317.287 11.3164 317.096 10.7596 316.716 10.3339C316.335 9.90892 315.771 9.69642 315.025 9.69642C314.59 9.69642 314.194 9.7885 313.838 9.97267C313.48 10.1568 313.196 10.4147 312.985 10.7448L313.031 10.6767L313.003 10.6272C312.874 10.4155 312.702 10.2307 312.499 10.0832L312.392 10.0102C312.063 9.80054 311.642 9.69571 311.131 9.69571C310.683 9.69571 310.279 9.79063 309.918 9.98117C309.678 10.1087 309.47 10.2652 309.295 10.4529L309.22 10.5379V9.84729H307.768V16.1422L309.426 16.143ZM320.674 16.3179C321.238 16.3179 321.705 16.2237 322.074 16.0346C322.361 15.8887 322.633 15.6705 322.889 15.3822L322.899 15.3695V16.143H324.338V12.296C324.338 12.0084 324.327 11.7485 324.302 11.5147C324.274 11.2694 324.196 11.0318 324.072 10.8156C323.858 10.41 323.497 10.0948 323.057 9.93017C322.609 9.75875 322.097 9.67304 321.521 9.67304C320.734 9.67304 320.113 9.83596 319.658 10.1625C319.212 10.4763 318.884 10.9227 318.726 11.4333L320.215 11.888C320.319 11.6004 320.503 11.4007 320.764 11.2873C321.027 11.1747 321.279 11.1187 321.521 11.1187C321.956 11.1187 322.267 11.2059 322.452 11.3808C322.582 11.5034 322.666 11.6741 322.705 11.8937L322.716 11.9758L322.454 12.0134L322.185 12.0523L321.926 12.0892C321.502 12.1494 321.124 12.2124 320.789 12.2783C320.454 12.3449 320.166 12.42 319.924 12.5057C319.573 12.6303 319.294 12.7847 319.087 12.9689C318.879 13.1538 318.729 13.3663 318.636 13.6071C318.54 13.8633 318.493 14.1339 318.496 14.4061C318.496 14.7553 318.58 15.0755 318.748 15.3645C318.915 15.6542 319.161 15.8851 319.486 16.0587C319.81 16.2315 320.206 16.3179 320.674 16.3179ZM321.025 15.0705C320.835 15.0705 320.672 15.0429 320.535 14.9891C320.408 14.9418 320.297 14.8595 320.218 14.7525C320.141 14.6436 320.102 14.5143 320.105 14.3827C320.105 14.2779 320.129 14.1823 320.175 14.0973C320.221 14.0116 320.294 13.933 320.393 13.8607C320.492 13.7892 320.622 13.7219 320.783 13.6595C320.924 13.61 321.087 13.5625 321.273 13.52C321.458 13.4775 321.702 13.4293 322.004 13.3769C322.193 13.3443 322.419 13.3061 322.68 13.2636L322.702 13.2607V13.2657C322.7 13.3444 322.696 13.423 322.692 13.5016L322.685 13.6333C322.67 13.8607 322.622 14.0605 322.536 14.2312C322.492 14.3204 322.408 14.4309 322.286 14.5634C322.144 14.709 321.976 14.8286 321.79 14.9161C321.582 15.0188 321.326 15.0705 321.025 15.0705ZM327.58 16.143V13.112L329.842 16.143H331.983L329.467 12.9951L331.826 9.848H329.794L327.58 12.879V7.74992H325.911L325.899 16.143H327.58ZM338.581 13.4385C338.649 12.6771 338.568 12.0148 338.338 11.451C338.109 10.8871 337.754 10.4501 337.274 10.1391C336.795 9.82887 336.212 9.67304 335.526 9.67304C334.882 9.67304 334.311 9.814 333.815 10.0959C333.319 10.3781 332.914 10.7889 332.648 11.2817C332.365 11.791 332.224 12.3895 332.224 13.0773C332.224 13.7063 332.369 14.2652 332.657 14.7525C332.939 15.2342 333.354 15.6315 333.855 15.9007C334.364 16.1791 334.954 16.3179 335.623 16.3179C336.253 16.3179 336.832 16.1585 337.362 15.8398C337.889 15.5247 338.298 15.0546 338.526 14.4989L336.881 14.0449C336.76 14.3013 336.585 14.4975 336.355 14.6328C336.125 14.7695 335.849 14.8375 335.526 14.8375C335.015 14.8375 334.627 14.6767 334.362 14.3558C334.18 14.1341 334.06 13.8487 334.004 13.4987L333.995 13.4385H338.581ZM336.916 12.2613H334.039L334.051 12.2075C334.107 11.9787 334.191 11.7825 334.304 11.6195L334.363 11.5416C334.627 11.213 335.039 11.0486 335.599 11.0486C336.079 11.0486 336.424 11.1896 336.636 11.4715C336.766 11.6443 336.857 11.8859 336.907 12.1954L336.916 12.2613ZM341.598 16.143V12.925C341.598 12.6842 341.632 12.4674 341.701 12.2747C341.765 12.0897 341.868 11.9192 342.003 11.774C342.136 11.6323 342.3 11.5182 342.494 11.4325C342.687 11.3433 342.904 11.2902 343.143 11.2725C343.384 11.2547 343.594 11.2732 343.775 11.3277V9.84729C343.579 9.82415 343.38 9.81941 343.183 9.83312C342.985 9.84658 342.793 9.87917 342.608 9.93229C342.427 9.98256 342.254 10.0559 342.094 10.1505C341.888 10.2666 341.715 10.4147 341.574 10.5932C341.518 10.6647 341.466 10.7395 341.418 10.817L341.393 10.8616V9.848H339.941V16.143H341.598ZM291.564 4C295.581 4 298.912 6.83121 299.526 10.5365C300.618 11.7423 301.195 13.303 301.139 14.9029C301.082 16.5027 300.398 18.0223 299.223 19.1541C298.049 20.286 296.472 20.9457 294.812 20.9997C293.152 21.0537 291.533 20.4981 290.282 19.4452C286.438 18.8537 283.5 15.6436 283.5 11.7711C283.5 7.47933 287.11 4 291.562 4H291.564ZM294.576 8.37112C293.243 8.37324 291.943 8.76726 290.848 9.50055C289.753 10.2339 288.917 11.2715 288.45 12.4751C287.984 13.6786 287.909 14.9907 288.237 16.2361C288.564 17.4815 289.278 18.6011 290.283 19.4452C290.924 19.5436 291.575 19.5679 292.222 19.5175C291.083 18.999 290.161 18.1221 289.608 17.031C289.055 15.9399 288.904 14.6999 289.18 13.5151C289.456 12.3303 290.143 11.2716 291.127 10.5132C292.111 9.75479 293.333 9.34205 294.593 9.34296C295.643 9.34459 296.67 9.63309 297.557 10.175C298.443 10.7169 299.152 11.4899 299.6 12.4044C299.445 14.2405 298.617 15.9637 297.266 17.2665C295.914 18.5693 294.127 19.3671 292.222 19.5175C293.254 19.9872 294.413 20.138 295.538 19.9493C296.663 19.7606 297.7 19.2415 298.508 18.4631C299.315 17.6847 299.853 16.6849 300.049 15.6004C300.245 14.516 300.088 13.3997 299.6 12.4044C299.653 11.7812 299.628 11.1541 299.526 10.5365C298.911 9.85426 298.151 9.30775 297.296 8.93411C296.442 8.56047 295.514 8.36846 294.576 8.37112Z" fill="#ADADAD"/>
</g>
<defs>
<clipPath id="clip0_6_144">
<rect width="81" height="15" fill="white" transform="translate(0.5 5)"/>
</clipPath>
<clipPath id="clip1_6_144">
<rect width="52" height="25" fill="white" transform="translate(110.5)"/>
</clipPath>
<clipPath id="clip2_6_144">
<rect width="66" height="15" fill="white" transform="translate(191.5 4)"/>
</clipPath>
<clipPath id="clip3_6_144">
<rect width="61" height="17" fill="white" transform="translate(283.5 4)"/>
</clipPath>
</defs>
</svg>
